<?xml version="1.0" encoding="utf-8"?>
<!-- Generator: Adobe Illustrator 19.2.1, SVG Export Plug-In . SVG Version: 6.00 Build 0)  -->
<svg version="1.1" id="layer" xmlns="http://www.w3.org/2000/svg" xmlns:xlink="http://www.w3.org/1999/xlink" x="0px" y="0px"
	 viewBox="0 0 652 652" style="enable-background:new 0 0 652 652;" xml:space="preserve">
<style type="text/css">
	.st0{fill:#ED1D24;}
</style>
<g>
	<path class="st0" d="M58,256c0-2.7,0.5-5.2,1.5-7.5c1-2.3,2.3-4.4,4.1-6.1c1.7-1.7,3.7-3.1,6-4.1c2.3-1,4.8-1.5,7.4-1.5
		c2.6,0,5.1,0.5,7.4,1.5c2.3,1,4.3,2.4,6,4.1c1.7,1.7,3,3.8,4,6.1c1,2.3,1.5,4.8,1.5,7.5c0,2.7-0.5,5.2-1.5,7.5
		c-1,2.3-2.3,4.4-4,6.1c-1.7,1.7-3.7,3.1-6,4.1c-2.3,1-4.7,1.5-7.4,1.5c-2.6,0-5.1-0.5-7.4-1.5c-2.3-1-4.3-2.4-6-4.1
		c-1.7-1.7-3.1-3.8-4.1-6.1C58.5,261.2,58,258.7,58,256 M39.1,387.2c-2.6,0-5-0.5-7.3-1.5c-2.3-1-4.3-2.4-6-4.1
		c-1.7-1.7-3-3.8-4-6.1c-1-2.3-1.5-4.8-1.5-7.5v-7.7h86.8v-11.6H20.3v-42.5c0-2.7,0.5-5.2,1.5-7.5c1-2.3,2.3-4.4,4-6.1
		c1.7-1.7,3.7-3.1,6-4.1c2.3-1,4.7-1.5,7.3-1.5h75.7c2.6,0,5.1,0.5,7.4,1.5c2.3,1,4.3,2.4,6,4.1c1.7,1.7,3,3.8,4,6.1
		c1,2.3,1.5,4.8,1.5,7.5v7.7h-87v11.5h87v42.5c0,2.7-0.5,5.2-1.5,7.5c-1,2.3-2.3,4.4-4,6.1c-1.7,1.7-3.7,3.1-6,4.1
		c-2.3,1-4.8,1.5-7.4,1.5H39.1z"/>
	<path class="st0" d="M206.9,388.4c-2.8,0-5.4-0.2-7.7-0.5c-2.3-0.3-4.4-0.7-6.3-1.2c-1.9-0.5-3.4-0.9-4.7-1.5
		c-1.3-0.5-2.2-0.9-2.9-1.2l2.8-8c0.9,0.5,2.4,1.1,4.5,1.8c2.1,0.7,4.2,1.2,6.6,1.6c2.4,0.4,4.6,0.6,6.6,0.6c4.1,0,7.3-0.6,9.7-1.8
		c2.3-1.2,3.8-2.7,4.4-4.5c0.6-1.8,0.9-3.5,0.9-5.1c0-2.7-0.9-4.9-2.6-6.6c-1.8-1.7-3.9-3-6.3-4c-2.5-1-4.7-1.9-6.7-2.7
		c-1.9-0.7-3.7-1.4-5.4-2.1c-1.7-0.7-3.4-1.7-5.1-2.9c-1.7-1.2-3.2-2.6-4.4-4.2c-1.2-1.6-2-3.3-2.4-4.9c-0.4-1.6-0.6-3.4-0.6-5.2
		c0-2.9,0.5-5.6,1.6-7.9c1.1-2.4,2.6-4.4,4.6-6.1c2-1.6,4.4-2.9,7.3-3.8c2.9-0.9,6.1-1.3,9.7-1.3c2.7,0,5.3,0.2,7.6,0.5
		c2.3,0.3,4.3,0.7,5.8,1.2c1.5,0.4,2.7,0.7,3.3,0.9v8.8c-1.6-0.6-3.4-1.1-5.2-1.6c-1.9-0.5-3.8-0.8-5.8-1.1c-2-0.3-3.9-0.4-5.8-0.4
		c-4.3,0-7.6,0.9-9.9,2.7c-2.4,1.8-3.5,4.4-3.5,7.7c0,1.7,0.4,3.1,1.1,4.3c0.7,1.2,1.8,2.2,3.2,3.1c1.3,0.9,3,1.7,4.8,2.5
		c1.9,0.7,4,1.5,6.2,2.3c2.5,0.9,4.9,1.9,7.2,3c2.3,1,4.3,2.3,6,3.9c1.7,1.5,3.1,3.4,4.2,5.7c1,2.2,1.6,5,1.6,8.3
		c0,3.2-0.5,6.1-1.6,8.6c-1.1,2.5-2.7,4.6-4.8,6.3c-2.1,1.7-4.6,3-7.6,3.9C214.2,388,210.8,388.4,206.9,388.4"/>
	<path class="st0" d="M243.6,407.4v-70.6h9.1l0.2,7.3c0.8-1.7,2.1-3.2,3.6-4.6c1.6-1.3,3.3-2.3,5.2-2.9c1.9-0.6,3.9-0.9,5.9-0.9
		c4.6,0,8.4,1.2,11.4,3.7c3,2.4,5.1,5.7,6.2,9.7c1.1,4,1.6,8.1,1.6,12.2c0,4.3-0.5,8.1-1.4,11.4c-0.9,3.3-2.3,6.2-4.1,8.4
		c-1.8,2.3-4,4-6.7,5.2c-2.7,1.2-5.7,1.8-9.1,1.8c-2.8,0-5.2-0.4-7.3-1.1c-2-0.7-3.8-1.7-5.2-3v23.2H243.6z M263.6,380.3
		c2.3,0,4.3-0.4,6-1.4c1.7-0.9,3-2,3.8-3.4c0.8-1.4,1.4-2.7,1.9-4c0.5-1.5,0.8-3,1-4.7c0.2-1.7,0.3-3.5,0.3-5.3
		c0-4-0.5-7.4-1.4-10.1c-1-2.7-2.4-4.7-4.2-5.8c-1.9-1.1-3.9-1.7-6-1.7c-1.9,0-3.6,0.5-5.1,1.4c-1.5,0.9-2.7,2.2-3.8,3.9
		c-1,1.7-1.8,3.6-2.3,5.9c-0.5,2.3-0.8,4.8-0.8,7.5v13c1.4,1.5,3,2.6,4.7,3.5C259.5,379.9,261.4,380.3,263.6,380.3"/>
	<path class="st0" d="M312.4,388.2c-2.1,0-4-0.3-5.9-0.8c-1.9-0.5-3.5-1.4-4.9-2.7c-1.4-1.2-2.5-2.8-3.3-4.7c-0.8-1.9-1.2-4.3-1.2-7
		c0-3.8,0.9-7,2.6-9.5c1.7-2.5,4.2-4.4,7.6-5.8c1.9-0.7,4-1.3,6.3-1.7c2.3-0.4,5-0.6,7.8-0.6c0.1,0,0.4,0,0.9,0c0.5,0,1,0,1.5,0
		c0.5,0,1.1,0,1.5,0c0.5,0,0.8,0,1,0v-2.7c0-2.5-0.5-4.5-1.4-5.9c-0.9-1.4-2.3-2.3-4.2-2.8c-1.9-0.5-3.9-0.7-6-0.7
		c-2.7,0-5.1,0.3-7.4,0.8c-2.3,0.6-4.4,1.2-6.5,2V338c2.7-0.7,4.6-1.2,5.8-1.4c1.2-0.2,2.8-0.4,4.6-0.6c1.9-0.2,3.6-0.3,5.3-0.3
		c3.3,0,6.1,0.3,8.5,1c2.4,0.6,4.4,1.7,5.9,3c1.6,1.4,2.7,3.1,3.4,5.2c0.7,2.1,1.1,4.6,1.1,7.5v34.7h-9l-0.2-4.3
		c-1,1-2.2,1.9-3.6,2.7c-1.5,0.8-3.2,1.4-5.2,1.9C315.9,387.9,314.1,388.2,312.4,388.2 M315,380.7c1.7,0,3.4-0.3,5.1-0.8
		c1.7-0.6,3-1.2,4-1.9c1-0.7,1.8-1.4,2.3-2v-13.7H323c-2.8,0-5.2,0.2-7.2,0.5c-2,0.3-3.7,0.9-5.1,1.7c-1.4,0.8-2.4,1.9-3,3.2
		c-0.7,1.3-1,2.9-1,4.8c0,1.7,0.3,3.2,1,4.5c0.7,1.3,1.7,2.3,3,2.9C312,380.4,313.4,380.7,315,380.7"/>
	<path class="st0" d="M351.6,387.2v-50.5h9.1l0.2,9.5c1.1-2.3,2.5-4.2,4.1-5.8c1.6-1.5,3.2-2.6,4.9-3.2c1.7-0.6,3.4-0.9,5-0.9
		c1.6,0,2.9,0.1,3.7,0.3v9.2c-0.7-0.2-1.9-0.3-3.4-0.3c-2.4,0-4.4,0.4-6.2,1.3c-1.8,0.9-3.2,2-4.4,3.4c-1.2,1.4-2.1,2.9-2.6,4.6
		c-0.6,1.7-0.9,3.3-0.9,4.9v27.3H351.6z"/>
	<path class="st0" d="M387.8,387.2v-73.3h9.5v42.4l18.5-19.5h11.4l-20.8,21.8c2,1.8,4.1,3.9,6.2,6.1c2.1,2.3,4.1,4.7,6,7.2
		c2,2.5,3.9,5,5.7,7.6c1.8,2.6,3.5,5.2,5.2,7.7h-11.9c-2-2.9-4.2-6-6.7-9.2c-2.5-3.2-4.9-6.1-7.2-8.8c-2.3-2.6-4.4-4.9-6.4-6.9v24.8
		H387.8z"/>
	<path class="st0" d="M449.2,388.2c-2.1,0-4-0.3-5.9-0.8c-1.9-0.5-3.5-1.4-4.9-2.7c-1.4-1.2-2.5-2.8-3.3-4.7c-0.8-1.9-1.2-4.3-1.2-7
		c0-3.8,0.9-7,2.6-9.5c1.7-2.5,4.2-4.4,7.6-5.8c1.9-0.7,4-1.3,6.3-1.7c2.3-0.4,5-0.6,7.8-0.6c0.1,0,0.4,0,0.9,0c0.5,0,1,0,1.5,0
		c0.5,0,1.1,0,1.5,0c0.5,0,0.8,0,1,0v-2.7c0-2.5-0.5-4.5-1.4-5.9c-0.9-1.4-2.3-2.3-4.2-2.8c-1.9-0.5-3.9-0.7-6-0.7
		c-2.7,0-5.1,0.3-7.4,0.8c-2.3,0.6-4.4,1.2-6.5,2V338c2.7-0.7,4.6-1.2,5.8-1.4c1.2-0.2,2.8-0.4,4.6-0.6c1.9-0.2,3.6-0.3,5.3-0.3
		c3.3,0,6.1,0.3,8.5,1c2.4,0.6,4.4,1.7,5.9,3c1.6,1.4,2.7,3.1,3.4,5.2c0.7,2.1,1.1,4.6,1.1,7.5v34.7h-9l-0.2-4.3
		c-1,1-2.2,1.9-3.6,2.7c-1.5,0.8-3.2,1.4-5.2,1.9C452.7,387.9,450.9,388.2,449.2,388.2 M451.9,380.7c1.7,0,3.4-0.3,5.1-0.8
		c1.7-0.6,3-1.2,4-1.9c1-0.7,1.8-1.4,2.3-2v-13.7h-3.5c-2.8,0-5.2,0.2-7.2,0.5c-2,0.3-3.7,0.9-5.1,1.7c-1.4,0.8-2.4,1.9-3,3.2
		c-0.7,1.3-1,2.9-1,4.8c0,1.7,0.3,3.2,1,4.5c0.7,1.3,1.7,2.3,3,2.9C448.8,380.4,450.3,380.7,451.9,380.7"/>
	<path class="st0" d="M502.2,388.2c-2.2,0-4.3-0.1-6.1-0.4c-1.9-0.2-3.5-0.5-5-0.9c-1.5-0.3-2.8-0.7-3.8-1.1c-1.1-0.4-2-0.7-2.6-1.1
		l2.5-7.3c1.7,0.7,3.1,1.2,4.5,1.6c1.4,0.4,2.9,0.7,4.7,1c1.8,0.3,3.5,0.4,5.3,0.4c2.9,0,5.1-0.3,6.8-1c1.7-0.7,2.8-1.6,3.3-2.7
		c0.5-1.1,0.8-2.2,0.8-3.3c0-1.8-0.7-3.2-2-4.2c-1.3-1-3-1.9-5-2.5c-2-0.7-3.8-1.3-5.5-1.9c-2-0.7-3.9-1.4-5.5-2.1
		c-1.7-0.7-3.2-1.6-4.4-2.7c-1.3-1.1-2.2-2.4-2.9-3.9c-0.7-1.5-1-3.4-1-5.6c0-2.4,0.4-4.5,1.3-6.3c0.9-1.8,2.1-3.4,3.7-4.6
		c1.6-1.2,3.5-2.2,5.8-2.8c2.2-0.6,4.8-1,7.5-1c3.2,0,6.1,0.2,8.4,0.6c2.4,0.4,4.5,0.9,6.3,1.4v8c-2.1-0.7-4.2-1.3-6.6-1.7
		c-2.3-0.4-4.8-0.6-7.6-0.6c-3.3,0-5.7,0.5-7.2,1.6c-1.6,1-2.3,2.6-2.3,4.7c0,1.1,0.3,2,0.8,2.7c0.6,0.7,1.4,1.4,2.4,2
		c1,0.6,2.3,1.1,3.7,1.6c1.5,0.5,3.1,1,5,1.6c3.8,1.2,6.8,2.5,9,3.8c2.2,1.3,3.7,3,4.6,5c0.9,2,1.3,4.1,1.3,6.5
		c0,2.6-0.5,4.8-1.4,6.7c-0.9,1.9-2.3,3.5-4.1,4.8c-1.7,1.3-3.8,2.2-6.3,2.8C507.9,387.8,505.2,388.2,502.2,388.2"/>
	<path class="st0" d="M548,388.2c-2.2,0-4.3-0.1-6.1-0.4c-1.9-0.2-3.5-0.5-5-0.9c-1.5-0.3-2.8-0.7-3.8-1.1c-1.1-0.4-2-0.7-2.6-1.1
		l2.5-7.3c1.7,0.7,3.1,1.2,4.5,1.6c1.4,0.4,2.9,0.7,4.7,1c1.8,0.3,3.5,0.4,5.3,0.4c2.9,0,5.1-0.3,6.8-1c1.7-0.7,2.8-1.6,3.3-2.7
		c0.5-1.1,0.8-2.2,0.8-3.3c0-1.8-0.7-3.2-2-4.2c-1.3-1-3-1.9-5-2.5c-2-0.7-3.8-1.3-5.5-1.9c-2-0.7-3.9-1.4-5.5-2.1
		c-1.7-0.7-3.2-1.6-4.4-2.7c-1.3-1.1-2.2-2.4-2.9-3.9c-0.7-1.5-1-3.4-1-5.6c0-2.4,0.4-4.5,1.3-6.3c0.9-1.8,2.1-3.4,3.7-4.6
		c1.6-1.2,3.5-2.2,5.8-2.8c2.2-0.6,4.8-1,7.5-1c3.2,0,6.1,0.2,8.4,0.6c2.4,0.4,4.5,0.9,6.3,1.4v8c-2.1-0.7-4.2-1.3-6.6-1.7
		c-2.3-0.4-4.8-0.6-7.6-0.6c-3.3,0-5.7,0.5-7.2,1.6c-1.6,1-2.3,2.6-2.3,4.7c0,1.1,0.3,2,0.8,2.7c0.6,0.7,1.4,1.4,2.4,2
		c1,0.6,2.3,1.1,3.7,1.6c1.5,0.5,3.1,1,5,1.6c3.8,1.2,6.8,2.5,9,3.8c2.2,1.3,3.7,3,4.6,5c0.9,2,1.3,4.1,1.3,6.5
		c0,2.6-0.5,4.8-1.4,6.7c-0.9,1.9-2.3,3.5-4.1,4.8c-1.7,1.3-3.8,2.2-6.3,2.8C553.7,387.8,551,388.2,548,388.2"/>
	<path class="st0" d="M602.1,388.4c-3.8,0-7.1-0.6-10-1.8c-2.9-1.2-5.4-3-7.4-5.3c-2-2.3-3.5-5.1-4.6-8.3c-1-3.3-1.6-6.9-1.6-10.9
		c0-3.9,0.5-7.5,1.4-10.8c1-3.3,2.4-6.1,4.2-8.4c1.8-2.3,4.1-4.2,6.9-5.4c2.7-1.3,5.9-1.9,9.4-1.9c6.6,0,11.5,2,14.9,6.1
		c3.3,4.1,5,9.9,5,17.4c0,2.2-0.1,4.2-0.2,5.9h-31.5c0.4,5.1,1.8,9,4.2,11.7c2.4,2.7,6,4.1,10.7,4.1c2.2,0,4.3-0.2,6.4-0.5
		c2.1-0.3,3.9-0.7,5.4-1.1l1.9,7.4c-2,0.6-4.3,1.1-6.7,1.4C608.1,388.2,605.3,388.4,602.1,388.4 M588.4,358h21.9v-2.3
		c0-4.2-0.8-7.4-2.5-9.6c-1.6-2.3-4.2-3.4-7.7-3.4c-3.7,0-6.5,1.3-8.4,4C589.8,349.4,588.7,353.1,588.4,358"/>
</g>
</svg>
