<svg width="16" height="16" viewBox="0 0 16 16" fill="none" xmlns="http://www.w3.org/2000/svg">
<mask id="mask0_1_9777" style="mask-type:alpha" maskUnits="userSpaceOnUse" x="0" y="0" width="16" height="16">
<rect width="16" height="16" transform="matrix(-1 0 0 1 16 0)" fill="#D9D9D9"/>
</mask>
<g mask="url(#mask0_1_9777)">
<path d="M9.58593 12.3333C10.5612 12.3333 11.3964 12.0068 12.0918 11.3538C12.7871 10.7008 13.1348 9.897 13.1348 8.94233C13.1348 7.98767 12.7871 7.18489 12.0918 6.534C11.3964 5.88311 10.5612 5.55767 9.58593 5.55767H4.90527L6.76026 3.7025L6.05777 3L3.0001 6.05767L6.05777 9.11533L6.76026 8.41283L4.90527 6.55767H9.58593C10.2817 6.55767 10.8804 6.78628 11.3821 7.2435C11.8839 7.70083 12.1348 8.26711 12.1348 8.94233C12.1348 9.61756 11.8839 10.1848 11.3821 10.6442C10.8804 11.1036 10.2817 11.3333 9.58593 11.3333H4.80143V12.3333H9.58593Z" fill="#999999"/>
</g>
</svg>
