<svg width="16" height="16" viewBox="0 0 16 16" fill="none" xmlns="http://www.w3.org/2000/svg">
<mask id="mask0_1_9780" style="mask-type:alpha" maskUnits="userSpaceOnUse" x="0" y="0" width="16" height="16">
<rect width="16" height="16" fill="#D9D9D9"/>
</mask>
<g mask="url(#mask0_1_9780)">
<path d="M6.41407 12.3333C5.43885 12.3333 4.60357 12.0068 3.90823 11.3538C3.2129 10.7008 2.86523 9.897 2.86523 8.94233C2.86523 7.98767 3.2129 7.18489 3.90823 6.534C4.60357 5.88311 5.43885 5.55767 6.41407 5.55767H11.0947L9.23974 3.7025L9.94223 3L12.9999 6.05767L9.94223 9.11533L9.23974 8.41283L11.0947 6.55767H6.41407C5.71829 6.55767 5.11957 6.78628 4.6179 7.2435C4.11612 7.70083 3.86523 8.26711 3.86523 8.94233C3.86523 9.61756 4.11612 10.1848 4.6179 10.6442C5.11957 11.1036 5.71829 11.3333 6.41407 11.3333H11.1986V12.3333H6.41407Z" fill="#999999"/>
</g>
</svg>
