<svg preserveAspectRatio="xMidYMid meet" data-bbox="0 0 247.278 94.288" xmlns="http://www.w3.org/2000/svg" viewBox="0 0 247.278 94.288" height="95" width="248" data-type="color" role="presentation" aria-hidden="true" aria-label="">
    <g>
        <path fill="#C82D2D" d="M68.836 0H94v94H0V30.728c20.1 10.46 37.032 19.77 56.294 34.176 15.886 11.882 7.072 25.75 7.39 25.621 24.09-9.698 27.822-41.446 1.328-52.197C36.48 26.749 28.305 22.83 29.132 3.4c11.658 13.68 39.21 27.153 52.473 30.338-.276-2.95-1.397-7.623-4.32-15.753C74.634 10.606 71.834 4.784 68.837 0Z" clip-rule="evenodd" fill-rule="evenodd" data-color="1"></path>
        <path fill="#000000" d="m134.04 32.664-1.056 4.32h11.52l-1.056-4.32a287.261 287.261 0 0 1-2.304-9.792 405.014 405.014 0 0 0-2.304-9.984h-.384a758.003 758.003 0 0 1-2.112 9.984 287.261 287.261 0 0 1-2.304 9.792ZM110.04 63 129.048.6h19.968L168.024 63h-17.472l-3.072-13.248h-17.472L126.936 63H110.04Z" data-color="2"></path>
        <path fill="#000000" d="M173.975 63V.6h16.512V63h-16.512Z" data-color="2"></path>
        <path fill="#000000" d="M214.254 63V14.424h-16.512V.6h49.536v13.824h-16.512V63h-16.512Z" data-color="2"></path>
        <path fill="#000000" d="M110.16 94V78.256h1.992v6.6h7.32v-6.6h2.016V94h-2.016v-7.416h-7.32V94h-1.992Z" data-color="2"></path>
        <path fill="#000000" d="M126.584 94V82.336h1.968V94h-1.968Zm1.008-14.064c-.384 0-.712-.12-.984-.36a1.196 1.196 0 0 1-.384-.912c0-.384.128-.688.384-.912.272-.24.6-.36.984-.36s.704.12.96.36c.272.224.408.528.408.912 0 .368-.136.672-.408.912-.256.24-.576.36-.96.36Z" data-color="2"></path>
        <path fill="#000000" d="M132.467 88.744v-1.512h5.52v1.512h-5.52Z" data-color="2"></path>
        <path fill="#000000" d="M144.903 94.288c-.624 0-1.152-.096-1.584-.288a2.831 2.831 0 0 1-1.032-.792 3.186 3.186 0 0 1-.552-1.224 6.973 6.973 0 0 1-.168-1.584v-6.456h-1.728v-1.488l1.824-.12.24-3.264h1.656v3.264h3.144v1.608h-3.144v6.48c0 .72.128 1.28.384 1.68.272.384.744.576 1.416.576.208 0 .432-.032.672-.096.24-.064.456-.136.648-.216l.384 1.488c-.32.112-.672.208-1.056.288a4.358 4.358 0 0 1-1.104.144Z" data-color="2"></path>
        <path fill="#000000" d="M154.7 94.288a5.95 5.95 0 0 1-2.208-.408 5.617 5.617 0 0 1-1.776-1.2 5.791 5.791 0 0 1-1.176-1.92c-.288-.752-.432-1.608-.432-2.568s.144-1.816.432-2.568c.304-.768.696-1.416 1.176-1.944a5.077 5.077 0 0 1 1.68-1.2 4.589 4.589 0 0 1 1.944-.432c.736 0 1.392.128 1.968.384.592.256 1.08.624 1.464 1.104.4.48.704 1.056.912 1.728.208.672.312 1.424.312 2.256 0 .208-.008.416-.024.624 0 .192-.016.36-.048.504h-7.872c.08 1.248.464 2.24 1.152 2.976.704.72 1.616 1.08 2.736 1.08.56 0 1.072-.08 1.536-.24.48-.176.936-.4 1.368-.672l.696 1.296c-.512.32-1.08.6-1.704.84-.624.24-1.336.36-2.136.36Zm-3.672-7.056h6.24c0-1.184-.256-2.08-.768-2.688-.496-.624-1.2-.936-2.112-.936-.416 0-.816.08-1.2.24-.368.16-.704.4-1.008.72-.304.304-.56.68-.768 1.128-.192.448-.32.96-.384 1.536Z" data-color="2"></path>
        <path fill="#000000" d="M167.446 94.288a5.702 5.702 0 0 1-2.16-.408 5.047 5.047 0 0 1-1.752-1.176c-.48-.528-.864-1.168-1.152-1.92-.272-.768-.408-1.632-.408-2.592 0-.976.152-1.84.456-2.592.304-.768.712-1.416 1.224-1.944a5.132 5.132 0 0 1 1.776-1.2 5.822 5.822 0 0 1 2.16-.408c.768 0 1.424.136 1.968.408a6.642 6.642 0 0 1 1.44.96l-1.008 1.296a4.82 4.82 0 0 0-1.08-.744 2.657 2.657 0 0 0-1.248-.288c-.528 0-1.016.112-1.464.336a3.172 3.172 0 0 0-1.152.912c-.32.4-.576.88-.768 1.44a5.907 5.907 0 0 0-.264 1.824c0 .672.088 1.28.264 1.824.176.544.416 1.016.72 1.416.32.384.704.688 1.152.912.448.208.936.312 1.464.312a3.28 3.28 0 0 0 1.488-.336c.464-.24.88-.52 1.248-.84l.864 1.32a6.476 6.476 0 0 1-1.752 1.104 5.378 5.378 0 0 1-2.016.384Z" data-color="2"></path>
        <path fill="#000000" d="M174.744 94V76.912h1.968v4.656l-.072 2.4c.56-.528 1.144-.976 1.752-1.344.608-.384 1.32-.576 2.136-.576 1.232 0 2.128.384 2.688 1.152.576.768.864 1.904.864 3.408V94h-1.968v-7.128c0-1.104-.176-1.896-.528-2.376-.352-.496-.912-.744-1.68-.744-.608 0-1.144.152-1.608.456-.464.304-.992.752-1.584 1.344V94h-1.968Z" data-color="2"></path>
        <path fill="#000000" d="M198.195 94.288c-.624 0-1.152-.096-1.584-.288a2.831 2.831 0 0 1-1.032-.792 3.186 3.186 0 0 1-.552-1.224 6.973 6.973 0 0 1-.168-1.584v-6.456h-1.728v-1.488l1.824-.12.24-3.264h1.656v3.264h3.144v1.608h-3.144v6.48c0 .72.128 1.28.384 1.68.272.384.744.576 1.416.576.208 0 .432-.032.672-.096.24-.064.456-.136.648-.216l.384 1.488c-.32.112-.672.208-1.056.288a4.358 4.358 0 0 1-1.104.144Z" data-color="2"></path>
        <path fill="#000000" d="M207.992 94.288a5.95 5.95 0 0 1-2.208-.408 5.617 5.617 0 0 1-1.776-1.2 5.791 5.791 0 0 1-1.176-1.92c-.288-.752-.432-1.608-.432-2.568s.144-1.816.432-2.568c.304-.768.696-1.416 1.176-1.944a5.077 5.077 0 0 1 1.68-1.2 4.589 4.589 0 0 1 1.944-.432c.736 0 1.392.128 1.968.384.592.256 1.08.624 1.464 1.104.4.48.704 1.056.912 1.728.208.672.312 1.424.312 2.256 0 .208-.008.416-.024.624 0 .192-.016.36-.048.504h-7.872c.08 1.248.464 2.24 1.152 2.976.704.72 1.616 1.08 2.736 1.08.56 0 1.072-.08 1.536-.24.48-.176.936-.4 1.368-.672l.696 1.296c-.512.32-1.08.6-1.704.84-.624.24-1.336.36-2.136.36Zm-3.672-7.056h6.24c0-1.184-.256-2.08-.768-2.688-.496-.624-1.2-.936-2.112-.936-.416 0-.816.08-1.2.24-.368.16-.704.4-1.008.72-.304.304-.56.68-.768 1.128-.192.448-.32.96-.384 1.536Z" data-color="2"></path>
        <path fill="#000000" d="M218.491 94.288c-.976 0-1.792-.288-2.448-.864-.64-.576-.96-1.392-.96-2.448 0-1.28.568-2.256 1.704-2.928 1.136-.688 2.952-1.168 5.448-1.44 0-.368-.04-.728-.12-1.08a2.54 2.54 0 0 0-.36-.936 1.845 1.845 0 0 0-.744-.648c-.304-.176-.696-.264-1.176-.264-.672 0-1.304.128-1.896.384a9.249 9.249 0 0 0-1.584.864l-.768-1.368c.544-.352 1.208-.688 1.992-1.008.784-.336 1.648-.504 2.592-.504 1.424 0 2.456.44 3.096 1.32.64.864.96 2.024.96 3.48V94h-1.632l-.168-1.392h-.072c-.56.464-1.16.864-1.8 1.2-.64.32-1.328.48-2.064.48Zm.576-1.584c.56 0 1.088-.128 1.584-.384.496-.272 1.024-.664 1.584-1.176v-3.24c-.976.128-1.8.28-2.472.456-.656.176-1.192.384-1.608.624-.4.24-.696.52-.888.84-.176.304-.264.64-.264 1.008 0 .672.2 1.152.6 1.44.4.288.888.432 1.464.432Z" data-color="2"></path>
        <path fill="#000000" d="M228.856 94V82.336h1.632l.168 1.68h.072a7.895 7.895 0 0 1 1.656-1.392 3.618 3.618 0 0 1 1.968-.576c.896 0 1.592.2 2.088.6.512.384.888.928 1.128 1.632.608-.672 1.216-1.208 1.824-1.608a3.566 3.566 0 0 1 2.016-.624c1.2 0 2.088.384 2.664 1.152.592.768.888 1.904.888 3.408V94h-1.968v-7.128c0-1.104-.176-1.896-.528-2.376-.352-.496-.896-.744-1.632-.744-.88 0-1.856.6-2.928 1.8V94h-1.968v-7.128c0-1.104-.176-1.896-.528-2.376-.352-.496-.904-.744-1.656-.744-.88 0-1.856.6-2.928 1.8V94h-1.968Z" data-color="2"></path>
    </g>
</svg>